<svg xmlns="http://www.w3.org/2000/svg" xmlns:xlink="http://www.w3.org/1999/xlink" preserveAspectRatio="xMidYMid meet" version="1.0" viewBox="0.0 -1.0 409.5 409.6" zoomAndPan="magnify" style="fill: rgb(0, 0, 0);" role="img" aria-label="Workplace Mobile Developement Illustration"><g><g id="__id20_scs8q00o79" style="fill: rgb(255, 255, 255);"><path d="M233.902,30.001l4.115,1.668c2.201,0.892,3.148,3.491,2.036,5.59l-2.08,3.926 c-1.765,3.332,1.631,7.036,5.103,5.565l4.082-1.729c2.188-0.926,4.696,0.242,5.395,2.512l1.306,4.243 c1.109,3.602,6.125,3.82,7.542,0.328l1.669-4.112c0.893-2.2,3.491-3.145,5.589-2.034l3.923,2.078 c3.331,1.765,7.034-1.629,5.566-5.101l-1.728-4.087c-0.924-2.187,0.244-4.693,2.513-5.392l4.242-1.305 c3.602-1.108,3.821-6.125,0.329-7.543l-4.112-1.669c-2.199-0.893-3.145-3.491-2.034-5.589l2.079-3.924 c1.765-3.331-1.629-7.034-5.102-5.566l-4.089,1.729c-2.187,0.925-4.693-0.244-5.39-2.513l-1.305-4.248 c-1.107-3.604-6.126-3.823-7.542-0.329l-1.669,4.117c-0.891,2.199-3.489,3.146-5.586,2.035l-3.933-2.082 c-3.331-1.764-7.032,1.631-5.562,5.102l1.732,4.089c0.926,2.187-0.243,4.695-2.513,5.392l-4.249,1.305 C230.627,23.566,230.408,28.585,233.902,30.001z M249.894,22.73c0.855-1.865,2.372-3.382,4.237-4.236 c8.86-4.06,17.446,4.526,13.386,13.386c-0.854,1.865-2.371,3.382-4.236,4.237C254.422,40.177,245.834,31.59,249.894,22.73z" style="fill: inherit;"></path><path d="M405.953,163.515c-0.495-0.53-1.037-0.991-1.614-1.383l-0.749-0.502l-36.46-25.634 c-0.84-1.053-2.049-1.916-3.395-2.426c-5.356-2.03-10.174-3.638-15.112-4.69l-1.772-10.878c-0.002-0.031,0.003-0.062,0.001-0.094 l-1.706-10.381c0.284,0.098,0.592,0.146,0.916,0.112c3.057-0.316,5.384-2.196,5.882-4.825c0.217-1.145,0.172-2.26-0.076-3.256 c1.042-2.957,1.322-6.084,0.87-9.104c5.789,2.755,12.837,0.722,16.217-4.884c3.6-5.969,1.678-13.725-4.29-17.325 c-4.177-2.519-9.226-2.326-13.116,0.058l-0.404-1.283c-1.066-3.383,1.026-6.946,4.499-7.663l6.493-1.342 c5.514-1.139,6.548-8.57,1.554-11.171l-5.879-3.063c-3.145-1.638-4.184-5.636-2.235-8.599l3.646-5.542 c3.095-4.705-1.429-10.692-6.801-8.998l-6.326,1.995c-3.382,1.066-6.945-1.026-7.661-4.5l-1.34-6.502 c-1.137-5.516-8.57-6.55-11.17-1.554l-3.064,5.887c-1.636,3.145-5.633,4.185-8.595,2.238l-5.555-3.652 c-4.705-3.094-10.689,1.432-8.994,6.802l1.998,6.325c1.068,3.383-1.024,6.948-4.499,7.664l-6.503,1.34 c-5.516,1.137-6.55,8.57-1.554,11.17l5.885,3.062c2.617,1.362,3.77,4.355,2.966,7.03c-0.314-0.013-0.629-0.024-0.947-0.024 H174.415l0.059-14.18h0.041v-9.748c0-4.426-3.589-8.015-8.015-8.015H95.425c-3.043,0-5.691,1.697-7.048,4.195 c-0.073,0.135-0.134,0.276-0.2,0.415c-0.045,0.096-0.096,0.188-0.138,0.286c-0.406,0.959-0.63,2.013-0.63,3.12L87.396,37.1 c-7.906,2.048-13.706,8.804-13.706,18.016c0,2.045,0.161,4.011,0.429,5.907c0,0,0,0,0.001,0c-1.178,1.045-2,2.743-2.114,4.705 c-0.018,0.319-0.007,0.633,0.03,0.942c0.018,0.149,0.06,0.291,0.09,0.437c0.032,0.154,0.054,0.311,0.1,0.461 c0.06,0.199,0.146,0.39,0.229,0.582c0.038,0.086,0.065,0.177,0.107,0.261c0.113,0.229,0.251,0.447,0.396,0.662 c0.026,0.039,0.047,0.08,0.074,0.118c0.17,0.24,0.363,0.467,0.571,0.686c0.008,0.008,0.015,0.018,0.023,0.026 c0.661,0.686,1.505,1.25,2.49,1.656l-2.474,21.367c-8.36,0.84-13.571,1.863-13.571,1.863c-9.247,2.713-15.789,6.1-20.22,7.943 c-0.438,0.182-0.805,0.466-1.099,0.807c-3.394,2.363-5.776,6.137-6.21,10.575l-1.985,38.54l-0.042,0c-0.002,0-0.003,0-0.005,0 c-0.273,0-0.497,0.221-0.5,0.495c-0.001,0.118,0.044,0.222,0.112,0.308c-0.384,0.244-0.648,0.661-0.673,1.145l-1.132,16.655 l10.101-17.524l0,0l-10.406,18.053c-2.175,7.137,1.849,14.686,8.986,16.861c3.036,0.925,6.143,0.719,8.883-0.362 c-0.027,0.279-0.044,0.57-0.073,0.846c-0.22,2.101,0.706,4.098,2.323,5.298c-0.793,11.855-0.927,24.851-0.393,35.873l2.151,40.571 H8.016c-3.32,0-6.169,2.019-7.385,4.896c-0.047,0.111-0.083,0.228-0.125,0.342c-0.049,0.131-0.103,0.26-0.144,0.394 C0.126,277.257,0,278.058,0,278.888v60.053c0,4.427,3.589,8.817,8.015,8.817l43.331-0.398c1.677,11.099,3.848,24.217,5.156,32.003 h3.488v3.803c0,0,0.001-0.001,0.002-0.001c-0.934,0.566-1.673,1.318-2.097,2.305c-1.774,4.124-3.713,6.994-6.376,11.168 c-2.429,3.804-3.247,6.912-3.234,9.451c0.007,1.253,1.049,2.252,2.301,2.252h30.709c1.251,0,2.298-1,2.301-2.251 c0.014-6.957-2.703-13.525-3.699-17.873c-0.426-1.857-0.513-3.453-1.24-3.951c-0.059-0.041-0.108-0.054-0.163-0.084c0,0,0,0,0,0 c-0.167-1.832-0.268-3.427-0.324-4.82h2.781l0.685-32.281l13.739-0.126c0.26,0,0.516-0.015,0.769-0.039 c2.489,13.707,5.669,25.774,7.679,32.446h2.871c0.135,1.833,0.255,3.329,0.358,4.563c0,0,0,0,0,0 c-0.306-0.134-0.642-0.178-1.073-0.054c-2.822,0.806-2.91,12.453-2.907,22.352c0,1.302,1.055,2.353,2.357,2.353h44.012 c1.407,0,2.508-1.222,2.344-2.62c-0.345-2.95-1.667-7.607-6.436-9.732c-7.266-3.237-12.096-6.556-14.246-11.104 c-1.082-2.29-3.508-3.291-5.922-3.333c0,0,0.001,0,0.001,0c-0.143-0.908-0.258-1.705-0.354-2.425h2.529l-1.804-90.987 l-7.046-84.585c2.327-0.405,2.79-2.808,3.168-5.396l5.473-62.888c0.104-0.03,0.192-0.092,0.257-0.178l8.826,8.612 c-0.289,0.549-0.207,1.246,0.269,1.707l11.945,11.561c0.37,0.358,0.877,0.452,1.343,0.339v227.509 c0,12.552,10.176,22.728,22.728,22.728h59.584c0.017,0.347,0.059,0.558,0.059,0.558h42.715c0.035-0.193,0.059-0.37,0.091-0.558 h22.101c12.552,0,22.728-10.176,22.728-22.728v-1.932l24.179,0.642l-18.019-0.478c-0.279,0.835-0.458,1.718-0.507,2.638 l-0.084,1.606c-0.733,8.5-0.586,14.655-0.586,20.81h35.024c0.146-6.888-14.362-11.336-14.362-18.051v-3.836 c0-0.922-0.135-1.811-0.369-2.659l16.57,0.44c0.014,0,1.693-9.17,2.264-12.237h0.141c0.276,0,0.5-0.224,0.5-0.5 c0-0.26-0.2-0.466-0.453-0.49l0,0c3.845-40.174,12.334-129.967,12.334-139.724c0-8.735-0.44-17.253-2.902-25.466 c1.721-0.812,3.75-1.793,4.404-2.5c0.454-0.491,0.719-1.025,0.851-1.582c0,0,0,0,0,0l26.716-24.733 C409.345,173.404,409.55,167.366,405.953,163.515z M66.386,381.798c-0.127-0.002-0.253,0.001-0.379,0.001 C66.133,381.799,66.259,381.796,66.386,381.798z M61.602,382.435c-0.07,0.023-0.136,0.052-0.204,0.076 C61.466,382.487,61.532,382.459,61.602,382.435z M64.401,381.871c-0.027,0.002-0.055,0.003-0.082,0.006 C64.346,381.874,64.374,381.873,64.401,381.871z M63.584,381.974c-0.106,0.016-0.213,0.031-0.318,0.049 C63.37,382.004,63.477,381.99,63.584,381.974z M62.576,382.164c-0.103,0.024-0.203,0.05-0.304,0.077 C62.372,382.214,62.473,382.188,62.576,382.164z M73.603,383.269c0.281,0.124,0.549,0.252,0.795,0.387 C74.153,383.521,73.884,383.393,73.603,383.269z M67.043,381.824c0.166,0.008,0.331,0.018,0.497,0.03 C67.375,381.842,67.209,381.833,67.043,381.824z M68.146,381.908c0.19,0.02,0.379,0.044,0.568,0.068 C68.525,381.952,68.336,381.928,68.146,381.908z M69.249,382.049c0.288,0.045,0.572,0.097,0.853,0.153 C69.821,382.147,69.537,382.095,69.249,382.049z M70.542,382.296c0.272,0.06,0.541,0.124,0.803,0.194 C71.084,382.42,70.815,382.356,70.542,382.296z M71.716,382.595c0.219,0.063,0.434,0.129,0.643,0.198 C72.15,382.724,71.935,382.659,71.716,382.595z M72.708,382.915c0.214,0.077,0.418,0.157,0.618,0.24 C73.127,383.072,72.922,382.991,72.708,382.915z M78.217,384.067c-0.094-0.022-0.186-0.036-0.274-0.021 C78.031,384.031,78.122,384.041,78.217,384.067z M120.176,383.338c-0.056,0.047-0.121,0.088-0.174,0.137 C120.056,383.426,120.12,383.385,120.176,383.338z M110.571,385.762c0.249,0.033,0.512,0.057,0.806,0.057 C111.083,385.819,110.82,385.795,110.571,385.762z M108.285,384.803c0.056,0.043,0.115,0.085,0.175,0.128 C108.4,384.888,108.341,384.846,108.285,384.803z M108.641,385.058c0.126,0.083,0.262,0.161,0.407,0.237 C108.904,385.22,108.767,385.141,108.641,385.058z M109.2,385.369c0.145,0.069,0.3,0.133,0.468,0.19 C109.5,385.502,109.345,385.438,109.2,385.369z M109.749,385.589c0.195,0.061,0.413,0.109,0.643,0.147 C110.162,385.697,109.945,385.65,109.749,385.589z M119.611,383.896c-0.046,0.055-0.102,0.104-0.145,0.16 C119.509,384,119.565,383.951,119.611,383.896z M122.305,382.204c0.017-0.005,0.034-0.009,0.051-0.015 C122.339,382.195,122.322,382.199,122.305,382.204z M120.666,382.968c0.049-0.032,0.104-0.058,0.155-0.089 C120.77,382.91,120.715,382.936,120.666,382.968z M121.44,382.542c0.035-0.016,0.073-0.029,0.109-0.045 C121.514,382.512,121.475,382.525,121.44,382.542z M328.208,292.84c-0.02-0.055-0.032-0.114-0.03-0.177 C328.176,292.725,328.188,292.784,328.208,292.84z M328.397,293.081c-0.008-0.005-0.015-0.011-0.023-0.016 C328.382,293.071,328.389,293.076,328.397,293.081z M328.287,292.98c-0.016-0.02-0.028-0.042-0.041-0.065 C328.259,292.938,328.272,292.96,328.287,292.98z M88.785,86.699c0.218,0.124,0.434,0.25,0.659,0.363 C89.22,86.949,89.004,86.823,88.785,86.699C88.786,86.699,88.786,86.699,88.785,86.699z M97.304,88.489 c-0.321,0.034-0.645,0.059-0.971,0.07C96.66,88.548,96.983,88.522,97.304,88.489z M78.489,71.321 C78.489,71.321,78.489,71.321,78.489,71.321c0.01-0.009,0.02-0.017,0.03-0.025c0.02-0.018,0.042-0.033,0.062-0.052 c-0.031,0.029-0.066,0.054-0.099,0.082C78.484,71.325,78.487,71.323,78.489,71.321z M78.98,70.721 c0.023-0.044,0.041-0.091,0.061-0.137c0,0,0,0,0,0c0.016-0.037,0.035-0.073,0.049-0.111c-0.034,0.089-0.07,0.176-0.115,0.258 C78.977,70.728,78.978,70.725,78.98,70.721C78.98,70.721,78.98,70.721,78.98,70.721z M79.217,69.938l-0.001,0 c0.002-0.024,0.011-0.044,0.012-0.068C79.226,69.893,79.219,69.914,79.217,69.938z M79.189,70.084 c0.008-0.049,0.023-0.095,0.028-0.146c-0.012,0.135-0.035,0.265-0.071,0.389C79.168,70.249,79.176,70.166,79.189,70.084 C79.189,70.084,79.189,70.084,79.189,70.084z M78.873,70.898c-0.041,0.06-0.085,0.117-0.132,0.172 C78.787,71.015,78.832,70.958,78.873,70.898z M51.882,183.622c-0.094,0.129-0.19,0.255-0.287,0.381 C51.692,183.877,51.789,183.751,51.882,183.622z M53.339,181.063c-0.06,0.14-0.132,0.272-0.196,0.409 C53.208,181.335,53.279,181.203,53.339,181.063z M52.68,182.384c-0.083,0.146-0.173,0.286-0.261,0.428 C52.506,182.67,52.597,182.53,52.68,182.384z M50.668,185.076c0.094-0.097,0.184-0.198,0.274-0.298 C50.852,184.878,50.762,184.979,50.668,185.076z M97.822,88.421c0.131-0.018,0.262-0.036,0.392-0.058 C98.085,88.385,97.953,88.402,97.822,88.421z M98.896,88.229c0.056-0.012,0.112-0.025,0.167-0.038 C99.007,88.204,98.952,88.216,98.896,88.229z M350.625,97.12c-0.017-0.02-0.034-0.04-0.052-0.059 C350.591,97.08,350.608,97.1,350.625,97.12z M157.467,79.281c0.013-0.143,0.03-0.285,0.047-0.427 C157.497,78.997,157.48,79.138,157.467,79.281z M157.657,77.917c0.028-0.152,0.052-0.305,0.084-0.455 C157.709,77.612,157.685,77.765,157.657,77.917z M158.04,76.304c0.062-0.208,0.138-0.41,0.209-0.614 C158.177,75.893,158.103,76.096,158.04,76.304z M158.451,75.137c0.093-0.238,0.192-0.472,0.296-0.704 C158.642,74.664,158.545,74.9,158.451,75.137z M312.051,78.774c0.02,0.16,0.043,0.319,0.058,0.48 C312.095,79.093,312.071,78.934,312.051,78.774z M341.443,93.641c0,0.074,0.004,0.152,0.005,0.229 C341.447,93.792,341.444,93.716,341.443,93.641z M340.079,92.845c0.037,0.001,0.073,0.001,0.11,0.001 c0.439,0.007,0.867,0.01,1.275,0.012C341.021,92.857,340.558,92.853,340.079,92.845z M334.473,92.517 c0.323,0.035,0.648,0.072,0.968,0.1c0.065,0.006,0.13,0.011,0.195,0.017c0.474,0.04,0.943,0.073,1.405,0.101 c0.066,0.004,0.131,0.007,0.196,0.011c0.264,0.015,0.52,0.024,0.779,0.035C336.878,92.732,335.688,92.649,334.473,92.517z M333.819,92.446c0.056,0.007,0.112,0.014,0.169,0.021C333.932,92.46,333.876,92.453,333.819,92.446z M332.193,92.212 c0.041,0.007,0.081,0.014,0.122,0.021c0.168,0.027,0.335,0.047,0.502,0.071C332.609,92.273,332.402,92.246,332.193,92.212z M327.416,91.024c0.023,0.008,0.047,0.016,0.07,0.024c1.009,0.351,2.056,0.635,3.118,0.864c0.012,0.002,0.024,0.005,0.036,0.008 c0.211,0.045,0.424,0.079,0.636,0.12C329.961,91.785,328.659,91.46,327.416,91.024z M329.615,125.359 c-0.016-0.021-0.031-0.044-0.048-0.065C329.583,125.316,329.599,125.338,329.615,125.359z M328.641,123.544 c-0.016-0.044-0.034-0.086-0.049-0.13C328.608,123.458,328.625,123.501,328.641,123.544z M328.298,122.438 c-0.015-0.061-0.03-0.124-0.044-0.186C328.269,122.313,328.283,122.376,328.298,122.438z M332.1,127.191 c-0.012-0.005-0.023-0.009-0.035-0.014C332.077,127.182,332.088,127.187,332.1,127.191z M330.291,126.098 c-0.009-0.008-0.018-0.015-0.026-0.023C330.274,126.084,330.283,126.091,330.291,126.098z M338.255,127.289 c-0.249,0.078-0.494,0.143-0.738,0.202C337.76,127.432,338.006,127.367,338.255,127.289z M340.071,126.567 c-0.155,0.074-0.309,0.142-0.464,0.209C339.761,126.709,339.916,126.641,340.071,126.567z M339.161,126.965 c-0.169,0.067-0.336,0.124-0.504,0.183C338.826,127.09,338.993,127.032,339.161,126.965z M338.599,92.808 c0.055,0.002,0.109,0.003,0.164,0.005c0.382,0.012,0.752,0.021,1.117,0.028C339.464,92.833,339.039,92.823,338.599,92.808z M341.84,125.575c-0.135,0.088-0.27,0.175-0.408,0.258C341.569,125.75,341.704,125.663,341.84,125.575z M340.968,126.101 c-0.146,0.082-0.292,0.161-0.439,0.237C340.676,126.262,340.822,126.183,340.968,126.101z M341.492,94.641 c0.005,0.063,0.009,0.125,0.016,0.19c0.067,0.69,0.193,1.447,0.387,2.225C341.682,96.204,341.554,95.381,341.492,94.641z M341.927,97.195c0.108,0.416,0.236,0.836,0.387,1.254c-0.159-0.441-0.293-0.883-0.405-1.321 C341.915,97.151,341.921,97.173,341.927,97.195z M326.001,90.465c-0.616-0.27-1.205-0.577-1.773-0.911 c0.07,0.041,0.133,0.089,0.204,0.129c0.045,0.026,0.091,0.051,0.137,0.076c0.424,0.235,0.861,0.453,1.311,0.654 C325.919,90.431,325.96,90.447,326.001,90.465z M321.889,87.84c0.033,0.031,0.065,0.063,0.099,0.093 c0.35,0.318,0.72,0.615,1.106,0.894c0.043,0.031,0.085,0.062,0.128,0.092c-0.476-0.335-0.926-0.701-1.349-1.096c0,0,0,0,0,0 C321.878,87.828,321.883,87.835,321.889,87.84z M319.792,116.462c1.379,1.684,3.181,3.058,5.342,3.921 c0.93,0.371,1.878,0.616,2.827,0.769l0.532,6.647c-2.705,0.233-5.591,0.606-8.7,1.124V116.462z M326.208,199.986 c-0.228-0.121-0.453-0.247-0.676-0.379C325.755,199.74,325.981,199.865,326.208,199.986z M329.625,201.32 c-0.359-0.093-0.714-0.195-1.062-0.312C328.911,201.125,329.266,201.227,329.625,201.32z M327.856,200.745 c-0.246-0.096-0.489-0.2-0.729-0.309C327.367,200.545,327.61,200.649,327.856,200.745z M330.46,201.515 c-0.042-0.008-0.082-0.02-0.124-0.029c0.04,0.008,0.082,0.013,0.122,0.021C330.459,201.51,330.459,201.513,330.46,201.515z M323.989,198.578c0.249,0.186,0.503,0.364,0.76,0.536C324.492,198.943,324.238,198.765,323.989,198.578z M331.467,201.68 c0.018,0.002,0.036,0.007,0.054,0.009c-0.018-0.002-0.036-0.003-0.054-0.006C331.468,201.683,331.467,201.682,331.467,201.68z M333.672,201.84c-0.522,0-1.028-0.036-1.528-0.085C332.645,201.8,333.15,201.84,333.672,201.84z M336.1,201.692 c-0.188,0.021-0.372,0.047-0.562,0.063C335.728,201.738,335.913,201.713,336.1,201.692z M343.25,199.467 c-0.144,0.078-0.285,0.159-0.431,0.234C342.965,199.626,343.106,199.544,343.25,199.467z M339.655,200.975 c-0.165,0.05-0.335,0.091-0.502,0.137C339.32,201.066,339.49,201.025,339.655,200.975z M337.95,201.402 c-0.198,0.041-0.399,0.079-0.6,0.114C337.552,201.481,337.752,201.443,337.95,201.402z M342.305,125.268 c0.123-0.085,0.241-0.177,0.361-0.266C342.545,125.091,342.427,125.182,342.305,125.268z M343.138,124.645 c0.042-0.034,0.081-0.071,0.122-0.105C343.219,124.574,343.18,124.611,343.138,124.645z M344.329,123.559 c0.075-0.077,0.154-0.151,0.227-0.229C344.483,123.408,344.404,123.482,344.329,123.559z M344.772,198.557 c-0.151,0.1-0.303,0.197-0.456,0.292C344.469,198.753,344.621,198.656,344.772,198.557z M342.347,98.527 c0.144,0.391,0.304,0.78,0.49,1.16C342.651,99.307,342.491,98.918,342.347,98.527z M343.046,100.052 c0.148,0.276,0.292,0.553,0.466,0.815C343.338,100.605,343.194,100.327,343.046,100.052z M309.918,72.728 c-0.187-0.302-0.382-0.599-0.589-0.887l0,0C309.536,72.129,309.731,72.425,309.918,72.728z M311.919,77.906 c-0.036-0.196-0.075-0.391-0.119-0.584C311.844,77.516,311.883,77.71,311.919,77.906z M311.622,76.629 c-0.061-0.218-0.117-0.438-0.187-0.652C311.504,76.191,311.561,76.41,311.622,76.629z M311.303,75.619 c-0.209-0.586-0.448-1.157-0.724-1.707C310.855,74.463,311.096,75.033,311.303,75.619z M310.515,73.779 c-0.157-0.305-0.326-0.603-0.503-0.896C310.189,73.176,310.359,73.473,310.515,73.779z M159.805,72.488 c-0.33,0.513-0.625,1.05-0.893,1.603C159.18,73.537,159.475,73.001,159.805,72.488L159.805,72.488z M303.58,371.997h-0.252 c0.242-0.603,0.394-0.972,0.402-0.97c0.201,0.065,0.35,0.247,0.35,0.47C304.08,371.774,303.856,371.997,303.58,371.997z M323.423,198.143c-0.307-0.248-0.608-0.507-0.903-0.777C322.816,197.636,323.117,197.894,323.423,198.143z M322.005,196.878 c-0.271-0.265-0.538-0.536-0.8-0.819C321.467,196.341,321.734,196.613,322.005,196.878z M320.688,195.477 c-0.216-0.248-0.428-0.503-0.637-0.763C320.26,194.974,320.472,195.229,320.688,195.477z M345.814,197.822 c0.119-0.089,0.24-0.174,0.357-0.265C346.053,197.648,345.932,197.733,345.814,197.822z M348.785,195.185 c0.1-0.104,0.197-0.213,0.296-0.32C348.982,194.972,348.885,195.081,348.785,195.185z M363.394,205.584 c-0.011-0.017-0.02-0.035-0.03-0.052C363.374,205.55,363.383,205.568,363.394,205.584z M363.252,203.745 c0-0.001,0-0.002,0.001-0.003l0,0C363.252,203.743,363.252,203.744,363.252,203.745z M360.87,199.709 c0.039-0.04,0.071-0.075,0.108-0.113C360.941,199.634,360.909,199.669,360.87,199.709z M361.22,199.342 c0.034-0.037,0.064-0.07,0.096-0.105C361.284,199.272,361.255,199.305,361.22,199.342z M361.518,199.016 c0.028-0.031,0.053-0.06,0.08-0.091C361.571,198.956,361.546,198.984,361.518,199.016z M361.999,198.45 c0.008-0.01,0.016-0.02,0.023-0.029C362.014,198.43,362.007,198.44,361.999,198.45z M361.773,198.723 c0.02-0.023,0.038-0.045,0.057-0.068C361.811,198.678,361.793,198.699,361.773,198.723z M359.785,197.41 c0.047-0.023,0.09-0.042,0.136-0.064C359.875,197.367,359.832,197.387,359.785,197.41z M360.408,197.117 c0.01-0.005,0.02-0.009,0.03-0.013C360.428,197.108,360.418,197.113,360.408,197.117z M363.523,205.753 c0.02,0.024,0.04,0.05,0.061,0.073C363.562,205.803,363.543,205.778,363.523,205.753z M363.811,206.032 c-0.031-0.024-0.061-0.05-0.091-0.077C363.75,205.982,363.779,206.008,363.811,206.032z M368.782,206.469 c-0.05-0.083-0.093-0.169-0.129-0.26C368.688,206.3,368.732,206.386,368.782,206.469z M373.401,192.321 c0.036,0.027,0.073,0.054,0.108,0.081C373.474,192.375,373.436,192.349,373.401,192.321z M370.86,190.68 c0.021,0.011,0.041,0.022,0.061,0.033C370.901,190.702,370.88,190.691,370.86,190.68z M372.611,191.752 c0.041,0.028,0.08,0.056,0.12,0.084C372.692,191.808,372.652,191.78,372.611,191.752z M355.637,184.878 c0.04-0.083,0.082-0.165,0.121-0.248C355.718,184.713,355.677,184.795,355.637,184.878z M350.012,193.815 c0.107-0.126,0.213-0.253,0.318-0.382C350.225,193.562,350.119,193.689,350.012,193.815z M351.251,192.251 c0.073-0.098,0.147-0.192,0.219-0.291C351.398,192.059,351.324,192.153,351.251,192.251z M353.623,188.664 c0.062-0.106,0.123-0.216,0.185-0.323C353.746,188.448,353.685,188.557,353.623,188.664z M354.622,186.876 c0.07-0.131,0.14-0.263,0.209-0.395C354.761,186.613,354.692,186.745,354.622,186.876z M345.191,122.585 c-0.074,0.095-0.154,0.187-0.233,0.281C345.036,122.772,345.116,122.68,345.191,122.585z M346.739,119.426 c-0.015,0.072-0.022,0.145-0.04,0.217C346.717,119.571,346.724,119.498,346.739,119.426z M346.526,120.196 c-0.034,0.097-0.064,0.195-0.102,0.291C346.462,120.391,346.492,120.294,346.526,120.196z M346.188,121.008 c-0.05,0.102-0.1,0.203-0.155,0.303C346.088,121.21,346.138,121.109,346.188,121.008z M345.738,121.809 c-0.064,0.1-0.131,0.199-0.199,0.298C345.607,122.008,345.674,121.909,345.738,121.809z M349.642,96.295 c-0.045-0.027-0.09-0.051-0.136-0.076C349.552,96.244,349.598,96.268,349.642,96.295z M349.11,96.03 c-0.051-0.021-0.102-0.043-0.154-0.062C349.008,95.987,349.059,96.009,349.11,96.03z M350.985,97.577 c0.012,0.018,0.025,0.035,0.037,0.053C351.01,97.612,350.997,97.594,350.985,97.577z M313.972,39.304 c1.535-2.653,4.005-4.694,6.899-5.702c13.75-4.786,25.306,9.197,18.017,21.799c-1.534,2.653-4.004,4.695-6.899,5.702 C318.239,65.891,306.681,51.907,313.972,39.304z M206.121,69.771c0.054,0.264,0.154,0.509,0.272,0.743 C206.275,70.28,206.175,70.035,206.121,69.771z M206.774,71.088c0.124,0.147,0.26,0.281,0.409,0.402 C207.034,71.369,206.897,71.235,206.774,71.088z M207.563,71.753c0.443,0.257,0.95,0.416,1.499,0.416s1.057-0.158,1.499-0.416 c-0.443,0.257-0.95,0.416-1.499,0.416S208.006,72.01,207.563,71.753z M218.12,67.848h44.133c0.478,0,0.887,0.29,1.062,0.704 c-0.175-0.414-0.585-0.704-1.062-0.704H218.12c-0.477,0-0.887,0.29-1.062,0.704C217.233,68.138,217.642,67.848,218.12,67.848z M212.066,69.166c0,0.207-0.021,0.41-0.061,0.605c-0.08,0.391-0.236,0.754-0.452,1.074c-0.167,0.247-0.379,0.458-0.61,0.645 c0.231-0.187,0.443-0.398,0.61-0.645c0.216-0.32,0.372-0.683,0.452-1.074C212.045,69.575,212.066,69.373,212.066,69.166 s-0.021-0.41-0.061-0.605c-0.066-0.322-0.194-0.619-0.354-0.894c0.16,0.276,0.289,0.572,0.354,0.894 C212.045,68.756,212.066,68.958,212.066,69.166z M75.516,60.167c-0.021,0.008-0.041,0.017-0.062,0.025 C75.475,60.184,75.495,60.175,75.516,60.167z M76.317,59.965c-0.038,0.005-0.077,0.009-0.115,0.016 C76.241,59.974,76.279,59.971,76.317,59.965z M42.993,137.104c-0.024,0.04-0.047,0.079-0.069,0.12 C42.946,137.183,42.969,137.144,42.993,137.104z M42.683,137.755C42.683,137.755,42.683,137.755,42.683,137.755 C42.683,137.755,42.683,137.755,42.683,137.755z M42.544,138.32c-0.008,0.048-0.015,0.096-0.022,0.144 C42.528,138.416,42.536,138.368,42.544,138.32z M38.513,153.566l0.043-0.075l1.657-2.874L38.513,153.566z M49.834,185.869 c-0.064,0.056-0.124,0.115-0.189,0.169C49.71,185.983,49.771,185.924,49.834,185.869z M49.95,195.335 c-0.336-0.099-0.657-0.226-0.96-0.378C49.293,195.109,49.614,195.236,49.95,195.335z M83.994,236.005c0.002,0,0.004,0,0.006,0 c0.273,0,0.497-0.221,0.5-0.494l0.223-20.066l-0.135,12.214l5.986,43.214h-7.319L83.994,236.005z M126.216,95.901 c-4.319-1.57-9.297-2.652-16.487-3.494c-3.416-0.268-6.765-0.429-10.011-0.506l0.122-3.912c0,0,0,0,0,0 c0.222-0.065,0.444-0.127,0.662-0.202c2.195-0.759,4.16-2.041,5.733-3.706c0.244-0.258,0.474-0.53,0.695-0.809 c0.355-0.436,0.693-0.886,0.996-1.363c1.235-1.949,2.015-4.225,2.181-6.688c-0.001,0.017-0.004,0.034-0.005,0.051 c0.001-0.017,0.005-0.033,0.006-0.051l0.184-2.734h41.013c-0.977,2.535-1.517,5.286-1.517,8.166v37.54l-17.19-18.662 C130.747,97.732,128.542,96.528,126.216,95.901z M319.792,320.585l8.737-27.438c0.039,0.012,0.078,0.026,0.12,0.028l-8.857,87.958 V320.585z M363.952,206.129c0.039,0.024,0.078,0.048,0.119,0.069C364.03,206.176,363.99,206.153,363.952,206.129z M364.214,206.265c0.047,0.02,0.096,0.037,0.145,0.053C364.309,206.302,364.261,206.285,364.214,206.265z M364.503,206.359 c0.055,0.013,0.111,0.021,0.167,0.029C364.614,206.38,364.558,206.371,364.503,206.359z M364.814,206.403 c0.061,0.003,0.124,0.001,0.187-0.002C364.938,206.404,364.875,206.406,364.814,206.403z M365.83,206.187 c0.117-0.057,0.233-0.124,0.35-0.204C366.063,206.063,365.947,206.13,365.83,206.187z M365.142,206.392 c0.068-0.008,0.136-0.024,0.205-0.04C365.278,206.368,365.21,206.384,365.142,206.392z M365.483,206.322 c0.077-0.023,0.154-0.056,0.232-0.089C365.637,206.266,365.56,206.299,365.483,206.322z M368.688,204.881 c-0.046,0.105-0.078,0.211-0.102,0.316C368.61,205.092,368.642,204.987,368.688,204.881z M368.568,205.299 c-0.012,0.072-0.022,0.143-0.025,0.214C368.546,205.442,368.556,205.371,368.568,205.299z M368.542,205.624 c0.001,0.068,0.007,0.136,0.016,0.202C368.548,205.76,368.543,205.693,368.542,205.624z M368.636,206.155 c-0.026-0.074-0.048-0.151-0.064-0.229C368.588,206.005,368.61,206.081,368.636,206.155z M368.825,206.531 c0.039,0.059,0.081,0.116,0.128,0.17C368.906,206.648,368.864,206.591,368.825,206.531z M369.02,206.774 c0.045,0.046,0.093,0.09,0.143,0.131C369.113,206.864,369.065,206.82,369.02,206.774z M369.241,206.966 c0.057,0.041,0.118,0.078,0.181,0.111C369.359,207.043,369.298,207.007,369.241,206.966z M369.488,207.115 c0.087,0.042,0.178,0.076,0.273,0.102C369.666,207.191,369.575,207.156,369.488,207.115z M369.813,207.227 c0.078,0.018,0.159,0.032,0.241,0.038C369.972,207.258,369.891,207.245,369.813,207.227z M370.156,207.267 c0.069,0.001,0.139-0.002,0.211-0.01C370.295,207.265,370.225,207.268,370.156,207.267z M370.806,207.15 c0.109-0.042,0.219-0.092,0.329-0.158c0.102-0.061,0.234-0.132,0.378-0.207c-0.144,0.075-0.276,0.146-0.378,0.207 C371.025,207.058,370.915,207.108,370.806,207.15z M370.48,207.24c0.074-0.013,0.148-0.034,0.224-0.058 C370.628,207.207,370.554,207.227,370.48,207.24z M373.033,206.048c0.027-0.013,0.055-0.026,0.082-0.039 C373.088,206.022,373.06,206.035,373.033,206.048z M371.628,206.726c0.143-0.073,0.296-0.149,0.467-0.232 C371.924,206.577,371.771,206.654,371.628,206.726z M372.123,206.48c0.186-0.09,0.39-0.187,0.6-0.286 C372.513,206.294,372.309,206.39,372.123,206.48z M374.188,192.956c0.039,0.034,0.075,0.067,0.113,0.101 C374.263,193.023,374.228,192.989,374.188,192.956z M374.788,193.507c0.05,0.049,0.1,0.097,0.148,0.146 C374.887,193.604,374.837,193.556,374.788,193.507z M378.872,200.788c-0.001-0.039-0.003-0.077-0.004-0.116 C378.869,200.711,378.871,200.749,378.872,200.788z M375.425,194.185c0.103,0.124,0.211,0.255,0.322,0.39 C375.636,194.439,375.528,194.308,375.425,194.185z M375.876,194.734c0.069,0.086,0.138,0.172,0.209,0.261 C376.014,194.906,375.945,194.82,375.876,194.734z M376.258,195.217c0.058,0.075,0.116,0.15,0.175,0.227 C376.375,195.367,376.316,195.291,376.258,195.217z M376.634,195.711c0.045,0.062,0.09,0.124,0.136,0.187 C376.724,195.835,376.679,195.772,376.634,195.711z M377.584,197.116c0.013,0.021,0.026,0.042,0.039,0.063 C377.61,197.158,377.597,197.137,377.584,197.116z M377.858,197.589c0.022,0.039,0.044,0.078,0.065,0.118 C377.902,197.668,377.88,197.629,377.858,197.589z M378.86,201.202c-0.003,0.038-0.009,0.075-0.013,0.113 C378.851,201.278,378.857,201.24,378.86,201.202z M378.137,198.123c0.018,0.036,0.035,0.073,0.052,0.109 C378.171,198.196,378.154,198.16,378.137,198.123z M378.387,198.678c0.002,0.005,0.003,0.009,0.005,0.013 C378.39,198.687,378.389,198.683,378.387,198.678z M378.82,200.186c0.003,0.018,0.006,0.035,0.009,0.053 C378.826,200.221,378.823,200.204,378.82,200.186z M369.069,189.831c-1.01-0.403-1.975-0.651-2.769-0.649 c-0.525,0.002-0.988,0.068-1.416,0.158c-2.343-2.659-5.115-4.93-8.217-6.694c2.877-6.574,5.034-14.24,6.895-22.006 c0.132-0.024,0.257-0.087,0.335-0.208l19.076,12.234L369.069,189.831z" style="fill: inherit;"></path></g><g id="__id21_scs8q00o79"><path clip-rule="evenodd" d="M164.415 96.346H303.43399999999997V341.005H164.415z" fill-rule="evenodd" style="fill: rgb(198, 193, 193);"></path></g><g id="__id22_scs8q00o79"><path clip-rule="evenodd" d="M363.692,46.847l-5.879-3.063 c-3.145-1.638-4.184-5.636-2.235-8.599l3.646-5.542c3.095-4.705-1.429-10.692-6.801-8.998l-6.326,1.995 c-3.382,1.066-6.945-1.026-7.661-4.5l-1.34-6.502c-1.137-5.516-8.57-6.55-11.17-1.554l-3.064,5.887 c-1.636,3.145-5.633,4.185-8.595,2.238l-5.555-3.652c-4.705-3.094-10.689,1.432-8.994,6.802l1.998,6.325 c1.068,3.383-1.024,6.948-4.499,7.664l-6.503,1.34c-5.516,1.137-6.55,8.57-1.554,11.17l5.885,3.062 c3.147,1.637,4.188,5.637,2.238,8.601l-3.648,5.545c-0.102,0.155-0.174,0.314-0.259,0.471h-14.511 c-0.733,0-1.328,0.595-1.328,1.328v2.014c0,5.188-4.206,9.392-9.393,9.392h-66.708c-5.188,0-9.393-4.205-9.393-9.393v-2.013 c0-0.733-0.595-1.328-1.329-1.328h-16.405c0.047-0.349,0.079-0.703,0.079-1.064l0.127-30.474c0-4.426-3.589-8.015-8.015-8.015 H95.425c-4.427,0-8.015,3.589-8.015,8.015l-0.127,30.474c0,4.427,3.589,8.015,8.015,8.015h64.507 c-1.517,2.356-2.407,5.154-2.407,8.165v304.403c0,8.349,6.767,15.117,15.116,15.117h124.55c8.349,0,15.116-6.768,15.116-15.117 V80.653c0-3.292-1.064-6.329-2.851-8.812c2.443,0.319,4.558,2.138,5.093,4.726l1.343,6.494c1.14,5.513,8.569,6.546,11.17,1.553 l3.063-5.879c1.639-3.145,5.637-4.184,8.599-2.235l5.541,3.645c4.704,3.095,10.691-1.428,8.999-6.799l-1.992-6.323 c-1.066-3.383,1.026-6.946,4.499-7.663l6.493-1.342C367.651,56.879,368.685,49.448,363.692,46.847z M297.706,104.831l0.025,65.65 l-127.815,0.048l-0.025-65.65L297.706,104.831z M206.619,371.212c-3.083,0-5.582-2.5-5.582-5.582c0-3.083,2.499-5.582,5.582-5.582 c3.083,0,5.582,2.499,5.582,5.582C212.201,368.713,209.702,371.212,206.619,371.212z M237.732,374.073 c-4.663,0-8.444-3.78-8.444-8.443c0-4.663,3.78-8.443,8.444-8.443c4.663,0,8.443,3.78,8.443,8.443 C246.175,370.293,242.394,374.073,237.732,374.073z M257.43,313.871h-88.503v-92.846h88.503V313.871z M268.844,371.212 c-3.083,0-5.581-2.5-5.581-5.582c0-3.083,2.499-5.582,5.581-5.582c3.083,0,5.582,2.499,5.582,5.582 C274.426,368.713,271.927,371.212,268.844,371.212z M290.689,313.871h-22.716v-92.846h22.716V313.871z M169.916,209.442 l-0.003-8.12l127.815-0.048l0.003,8.12L169.916,209.442z M169.916,189.986l-0.003-8.12l127.815-0.048l0.003,8.12L169.916,189.986z M338.888,55.402c-1.534,2.653-4.004,4.695-6.899,5.702c-13.75,4.787-25.308-9.197-18.018-21.8 c1.535-2.653,4.005-4.694,6.899-5.702C334.621,28.817,346.177,42.799,338.888,55.402z M233.902,30.001l4.115,1.668 c2.201,0.892,3.148,3.491,2.036,5.59l-2.08,3.926c-1.765,3.332,1.631,7.036,5.103,5.565l4.082-1.729 c2.188-0.926,4.696,0.242,5.395,2.512l1.306,4.243c1.109,3.602,6.125,3.82,7.542,0.328l1.669-4.112 c0.893-2.2,3.491-3.145,5.589-2.034l3.923,2.078c3.331,1.765,7.034-1.629,5.566-5.101l-1.728-4.087 c-0.924-2.187,0.244-4.693,2.513-5.392l4.242-1.305c3.602-1.108,3.821-6.125,0.329-7.543l-4.112-1.669 c-2.199-0.893-3.145-3.491-2.034-5.589l2.079-3.924c1.765-3.331-1.629-7.034-5.102-5.566l-4.089,1.729 c-2.187,0.925-4.693-0.244-5.39-2.513l-1.305-4.248c-1.107-3.604-6.126-3.823-7.542-0.329l-1.669,4.117 c-0.891,2.199-3.489,3.146-5.586,2.035l-3.933-2.082c-3.331-1.764-7.032,1.631-5.562,5.102l1.732,4.089 c0.926,2.187-0.243,4.695-2.513,5.392l-4.249,1.305C230.627,23.566,230.408,28.585,233.902,30.001z M249.894,22.73 c0.855-1.865,2.372-3.382,4.237-4.236c8.86-4.06,17.446,4.526,13.386,13.386c-0.854,1.865-2.371,3.382-4.236,4.237 C254.422,40.177,245.834,31.59,249.894,22.73z M103.391,278.888v60.053c0,4.427-3.589,8.015-8.015,8.015l-87.36,0.802 c-4.427,0-8.015-4.39-8.015-8.817v-60.053c0-4.427,3.589-8.015,8.015-8.015h87.36C99.802,270.873,103.391,274.461,103.391,278.888z M328.678,293.178c-0.005,0-0.01,0-0.016,0c-0.276-0.009-0.493-0.239-0.484-0.516l2.146-69.143l-7.599-8.865 c-0.18-0.209-0.155-0.525,0.055-0.705c0.208-0.178,0.524-0.154,0.705,0.055l7.725,9.012c0.081,0.095,0.124,0.216,0.12,0.341 l-2.151,69.337C329.169,292.964,328.947,293.178,328.678,293.178z M364.543,371.497c0-0.276-0.224-0.5-0.5-0.5H324.05 c-0.276,0-0.5,0.224-0.5,0.5s0.224,0.5,0.5,0.5h39.993C364.319,371.997,364.543,371.774,364.543,371.497z M304.08,371.497 c0-0.276-0.224-0.5-0.5-0.5h-45.313c-0.276,0-0.5,0.224-0.5,0.5s0.224,0.5,0.5,0.5h45.313 C303.856,371.997,304.08,371.774,304.08,371.497z M84.5,235.511l0.223-20.066l8.155-2.175c0.267-0.071,0.426-0.346,0.354-0.612 c-0.071-0.266-0.342-0.423-0.612-0.354l-8.522,2.273c-0.217,0.059-0.368,0.253-0.371,0.478L83.5,235.499 c-0.003,0.276,0.219,0.503,0.494,0.506c0.002,0,0.004,0,0.006,0C84.273,236.005,84.497,235.785,84.5,235.511z" fill-rule="evenodd" style="fill: rgb(255, 255, 255);"></path></g><g id="__id23_scs8q00o79"><path clip-rule="evenodd" d="M230.325,297.388h-50.127c-0.828,0-1.5,0.672-1.5,1.5 s0.672,1.5,1.5,1.5h50.127c0.828,0,1.5-0.672,1.5-1.5S231.153,297.388,230.325,297.388z" fill-rule="evenodd" style="fill: rgb(255, 255, 255);"></path></g><g><g id="__id24_scs8q00o79"><circle cx="209.063" cy="69.166" r="3.003" style="fill: rgb(255, 255, 255);"></circle></g><g id="__id25_scs8q00o79"><path d="M262.253,70.154H218.12c-0.637,0-1.153-0.516-1.153-1.153v0c0-0.637,0.516-1.153,1.153-1.153h44.133 c0.637,0,1.153,0.516,1.153,1.153v0C263.406,69.638,262.89,70.154,262.253,70.154z" style="fill: rgb(255, 255, 255);"></path></g></g><g id="__id26_scs8q00o79"><path clip-rule="evenodd" d="M297.064,57.926h-124.55c-12.552,0-22.728,10.176-22.728,22.728 v304.403c0,12.552,10.176,22.728,22.728,22.728h124.55c12.552,0,22.728-10.176,22.728-22.728V80.653 C319.792,68.101,309.616,57.926,297.064,57.926z M218.12,67.848h44.133c0.637,0,1.153,0.516,1.153,1.153 c0,0.637-0.516,1.153-1.153,1.153H218.12c-0.637,0-1.153-0.516-1.153-1.153C216.967,68.364,217.483,67.848,218.12,67.848z M209.063,66.163c1.658,0,3.003,1.344,3.003,3.003s-1.344,3.003-3.003,3.003s-3.003-1.344-3.003-3.003 S207.404,66.163,209.063,66.163z M312.18,385.056c0,8.349-6.767,15.117-15.116,15.117h-124.55c-8.349,0-15.116-6.768-15.116-15.117 V80.653c0-8.349,6.767-15.116,15.116-15.116h18.2c0.733,0,1.329,0.595,1.329,1.328v2.013c0,5.188,4.205,9.393,9.393,9.393h66.708 c5.188,0,9.393-4.205,9.393-9.392v-2.014c0-0.733,0.595-1.328,1.328-1.328h18.199c8.349,0,15.117,6.767,15.117,15.116V385.056z M166.499,25.982H95.425c-4.427,0-8.015,3.589-8.015,8.015v9.748h87.105v-9.748C174.514,29.571,170.925,25.982,166.499,25.982z M164.518,37.546c-1.48,0-2.68-1.201-2.68-2.681c0-1.481,1.201-2.681,2.68-2.681c1.481,0,2.682,1.2,2.682,2.681 C167.2,36.345,165.999,37.546,164.518,37.546z M150.175,57.365h-39.382c-0.886,0-1.604-0.718-1.604-1.604s0.718-1.604,1.604-1.604 h39.382c0.886,0,1.604,0.718,1.604,1.604S151.06,57.365,150.175,57.365z M212.201,365.63c0,3.083-2.499,5.582-5.582,5.582 c-3.083,0-5.582-2.499-5.582-5.582c0-3.083,2.499-5.582,5.582-5.582C209.702,360.048,212.201,362.547,212.201,365.63z M246.175,365.63c0,4.663-3.78,8.443-8.443,8.443c-4.663,0-8.444-3.78-8.444-8.443c0-4.663,3.78-8.444,8.444-8.444 C242.394,357.187,246.175,360.967,246.175,365.63z M274.426,365.63c0,3.083-2.499,5.582-5.582,5.582 c-3.083,0-5.581-2.499-5.581-5.582c0-3.083,2.499-5.582,5.581-5.582C271.927,360.048,274.426,362.547,274.426,365.63z M91.171,320.255H12.219c-0.886,0-1.604-0.718-1.604-1.604s0.718-1.604,1.604-1.604h78.952c0.886,0,1.604,0.718,1.604,1.604 S92.057,320.255,91.171,320.255z M91.171,304.418H12.219c-0.886,0-1.604-0.718-1.604-1.604s0.718-1.604,1.604-1.604h78.952 c0.886,0,1.604,0.718,1.604,1.604S92.057,304.418,91.171,304.418z M95.375,270.872H8.016c-4.427,0-8.015,3.589-8.015,8.015v9.748 h103.39v-9.748C103.391,274.461,99.802,270.872,95.375,270.872z M9.538,282.436c-1.481,0-2.681-1.201-2.681-2.681 c0-1.481,1.2-2.681,2.681-2.681c1.48,0,2.68,1.2,2.68,2.681C12.218,281.235,11.018,282.436,9.538,282.436z" fill-rule="evenodd" style="fill: rgb(198, 193, 193);"></path></g><g id="__id27_scs8q00o79"><path clip-rule="evenodd" d="M177.644,113.392l53.689,0.02l-0.018,48.578l-53.689-0.02 L177.644,113.392z M287.406,126.787h-45.768c-0.828,0-1.5,0.672-1.5,1.5s0.672,1.5,1.5,1.5h45.768c0.828,0,1.5-0.672,1.5-1.5 S288.234,126.787,287.406,126.787z M287.406,115.253h-45.768c-0.828,0-1.5,0.672-1.5,1.5s0.672,1.5,1.5,1.5h45.768 c0.828,0,1.5-0.672,1.5-1.5S288.234,115.253,287.406,115.253z M277.765,156.738h-35.961c-0.828,0-1.5,0.672-1.5,1.5 s0.672,1.5,1.5,1.5h35.961c0.828,0,1.5-0.672,1.5-1.5S278.593,156.738,277.765,156.738z M241.639,141.319h35.961 c0.828,0,1.5-0.672,1.5-1.5s-0.672-1.5-1.5-1.5h-35.961c-0.828,0-1.5,0.672-1.5,1.5S240.81,141.319,241.639,141.319z M249.257,264.853v-35.864h-71.062v35.864H249.257z M245.495,275.824c0-0.828-0.672-1.5-1.5-1.5h-63.797 c-0.828,0-1.5,0.672-1.5,1.5s0.672,1.5,1.5,1.5h63.797C244.823,277.324,245.495,276.652,245.495,275.824z M245.495,287.356 c0-0.828-0.672-1.5-1.5-1.5h-63.797c-0.828,0-1.5,0.672-1.5,1.5s0.672,1.5,1.5,1.5h63.797 C244.823,288.856,245.495,288.184,245.495,287.356z M231.825,298.888c0-0.828-0.672-1.5-1.5-1.5h-50.127 c-0.828,0-1.5,0.672-1.5,1.5s0.672,1.5,1.5,1.5h50.127C231.153,300.388,231.825,299.716,231.825,298.888z" fill-rule="evenodd" style="fill: rgb(255, 255, 255);"></path></g><g id="__id28_scs8q00o79"><path d="M213.114,126.279c-0.766-4.049,2.719-7.531,6.768-6.762c2.262,0.43,4.085,2.255,4.513,4.517 c0.766,4.049-2.719,7.532-6.768,6.763C215.366,130.366,213.542,128.541,213.114,126.279z M231.318,151.548L215.4,134.517 l-6.561,7.009l-11.912-16.159l-19.298,26.137l21.862,0.008l-0.022,0.023L231.318,151.548z M210.201,234.78h-8.383l-1.619,3.53 h-0.009v19.365h28.238V238.31h-16.609L210.201,234.78z" style="fill: rgb(198, 193, 193);"></path></g><g id="__id29_scs8q00o79" style="fill: rgb(255, 145, 77);"><path d="M94.869,88.534c-0.39-0.026-0.775-0.068-1.155-0.124c-0.379-0.056-0.753-0.128-1.122-0.213 c-1.106-0.256-2.159-0.64-3.147-1.135c-0.225-0.113-0.441-0.239-0.659-0.363c-0.537-0.306-1.051-0.645-1.541-1.015 c0.398,0.301,0.807,0.588,1.237,0.847c-0.955-0.574-1.835-1.258-2.626-2.029c-2.982-2.713-6.297-7.076-8.716-12.69h0 c0.504,0.002,0.977-0.177,1.349-0.491c0.02-0.017,0.04-0.032,0.059-0.049c0.073-0.066,0.139-0.137,0.202-0.213 c0.028-0.034,0.054-0.069,0.081-0.105c0.054-0.075,0.106-0.15,0.15-0.232c0.023-0.044,0.041-0.091,0.061-0.137 c0.069-0.156,0.119-0.323,0.148-0.5c0.008-0.049,0.023-0.095,0.028-0.146l-0.001,0c0.002-0.024,0.011-0.044,0.012-0.068 c0,0,0.033-0.83,0.017-2.007c-0.002-0.171-0.006-0.349-0.01-0.533c0-0.01,0-0.021-0.001-0.031c-0.01-0.37-0.025-0.764-0.047-1.169 c-0.001-0.019-0.002-0.038-0.003-0.058c-0.023-0.408-0.053-0.826-0.093-1.244c-0.001-0.01-0.002-0.02-0.003-0.03 c-0.02-0.205-0.042-0.409-0.067-0.611c-0.001-0.007-0.002-0.015-0.003-0.022c-0.051-0.42-0.114-0.832-0.189-1.225 c-0.002-0.009-0.003-0.017-0.005-0.026c-0.192-0.994-0.468-1.857-0.863-2.397c-0.001-0.001-0.001-0.002-0.002-0.003 c-0.255-0.347-0.557-0.563-0.919-0.584c-2.585-0.151-4.838,2.446-5.033,5.799c-0.145,2.507,1.481,4.746,4.11,5.83l-2.773,23.949 c-0.765,6.952,3.998,13.32,11.394,14.118c7.395,0.798,14.01-4.191,14.775-11.142l0.327-10.492 c-1.122,0.328-2.295,0.529-3.506,0.57C95.849,88.576,95.361,88.568,94.869,88.534z" style="fill: inherit;"></path><path d="M59.991,379.363v3.803c3.804-2.308,10.964-1.404,14.407,0.49c1.086,0.598,2.324,0.609,3.545,0.39 c0.169-0.03,0.35,0.028,0.551,0.137c-0.167-1.832-0.268-3.427-0.324-4.82H59.991z" style="fill: inherit;"></path><path d="M63.402,147.463c0.899-0.512,1.642-0.948,1.917-1.143c0.907-0.642,2.332-1.613,1.81-3.29 c-0.274-0.88-0.989-1.256-1.771-1.368c1.43-1.002,1.482-2.547,1.191-3.14c-0.527-1.08-1.16-1.181-2.439-1.024 c-1.279,0.156-8.24,0.966-8.26,0.97c-0.216,0.015-0.431,0.044-0.644,0.103l-0.75,0.228c-0.369-0.258-0.767-0.476-1.181-0.662 l1.454-1.021c1.803-0.125,4.783-0.341,6.489-0.516c2.558-0.262,3.343-1.971,3.358-2.748c0.021-1.202-0.904-1.312-2.119-1.672 l-8-1.054c-0.782-0.085-1.546,0.043-2.191,0.346c-0.02,0.009-0.037,0.02-0.056,0.029c-0.146,0.072-0.285,0.154-0.416,0.244 l-7.804,4.277c-0.985,0.696-1.546,1.831-1.499,3.035c0,0.001,0,0.001,0,0.002l-2.277,11.557l-12.201,21.169 c-2.175,7.137,1.849,14.686,8.986,16.861c7.137,2.174,14.685-1.849,16.861-8.986l2.448-22.952c0.944-0.406,1.908-0.82,1.91-0.821 c0.167-0.058,0.333-0.132,0.49-0.223l5.066-3.777C67.052,149.372,64.943,147.073,63.402,147.463z" style="fill: inherit;"></path><path d="M100.221,75.71L100.221,75.71c-0.357,0.024-0.712,0.042-1.057,0.042c-3.03,0-6.787-1.235-6.787,1.594 c0,1.234,0.568,2.366,1.514,3.25c1.516,1.418,4.118,0.337,4.137-1.739c0.001-0.013,0.001-0.025,0.001-0.038 c0-0.001,0.036-0.003,0.092-0.004c0.015,0,0.038-0.001,0.056-0.001c0.053-0.001,0.113-0.002,0.189-0.003 c0.02,0,0.041-0.001,0.062-0.001c0.085-0.001,0.179-0.002,0.28-0.004c0.028,0,0.055-0.001,0.084-0.001 c0.113-0.001,0.23-0.003,0.349-0.004c0.011,0,0.021,0,0.032,0c0.565-0.006,1.128-0.01,1.128-0.01c0,0.01-0.002,0.018-0.002,0.029 v0.038c0.018,2.076,2.621,3.157,4.138,1.739c0.946-0.884,1.513-2.016,1.513-3.25C105.95,74.839,103.001,75.522,100.221,75.71z" style="fill: inherit;"></path><path d="M99.825,72.629c6.77,0,9.403-1.383,10.891-6.476l-0.611,9.068c-0.001,0.017-0.004,0.034-0.005,0.051 c0.001-0.017,0.005-0.033,0.006-0.051l1.219-18.1c0.037-0.583,0.034-1.18,0.012-1.781c0,0,0,0,0,0.001 c-0.019-0.525-0.066-1.054-0.131-1.583c-0.027-0.219-0.055-0.437-0.091-0.656c-0.027-0.168-0.056-0.337-0.089-0.505 c-0.08-0.412-0.168-0.824-0.279-1.23c-0.142-0.518-0.313-1.019-0.497-1.512c-0.083-0.22-0.176-0.433-0.267-0.648 c-0.104-0.248-0.212-0.494-0.327-0.735c-0.133-0.277-0.271-0.55-0.418-0.817c-0.078-0.145-0.161-0.285-0.244-0.427 c-0.182-0.312-0.366-0.622-0.565-0.92c0,0,0,0,0,0c-1.916,1.244-4.325,1.712-9.089,2.199c-3.707,0.379-9.906,0.36-13.237-0.749 c-3.464,4.686,0.051,10.186-3.85,13.042C84.072,70.741,90.016,72.629,99.825,72.629z" style="fill: inherit;"></path><path d="M375.425,194.185c-1.84-2.207-6.446-5.011-9.124-5.002c-2.678,0.009-4.123,1.444-4.123,1.444 c-1.629,1.181-4.42,3.406-4.995,3.807c-2.78,1.94-0.457,4.63,1.957,3.31c1.839-1.004,2.916-1.186,5.58-2.544 c-2.562,2.61-1.837,2.52-4.259,4.921c-2.565,2.542,0.142,5.496,2.425,3.657c0.181-0.146,0.386-0.31,0.593-0.476 c-1.27,1.964,0.773,4.017,2.702,2.68c1.16-0.804,2.889-1.946,4.644-3.1c0.004,0.002,0.009,0.006,0.013,0.008 c-0.391,0.296-0.137,0.099-1.323,0.993c-2.186,1.649-0.289,4.25,1.621,3.109c1.217-0.727,5.749-2.548,6.791-3.676 C380.502,200.53,377.264,196.392,375.425,194.185z" style="fill: inherit;"></path><path d="M348.391,95.809c-2.603-0.493-3.248,1.96-3.568,3.652l-0.471,2.482c-2.487-2.705-3.047-7.024-2.888-9.085 c-6.955-0.022-18.836-0.595-22.243-8.834c-0.982,1.964-1.587,4.154-1.693,6.488l-0.768,16.885 c-0.24,5.504,2.968,10.827,8.374,12.986c0.955,0.381,1.928,0.633,2.902,0.785c0.651,4.03,2.459,6.581,7.529,6.581 c4.526,0,11.715-4.833,11.287-9.84l-1.706-10.381c0.284,0.098,0.592,0.146,0.916,0.112c3.057-0.316,5.384-2.196,5.882-4.825 C352.585,99.439,350.993,96.303,348.391,95.809z" style="fill: inherit;"></path><path d="M226.833,106.237c0.862-1.069-0.255-2.711-3.366-3.185c-3.789-0.577-6.427-0.842-15.596-0.781 c0.46-0.143,0.888-0.273,1.26-0.378c2.961-0.834-0.053-4.952-5.005-4.1c-3.892,0.669-10.171,1.704-10.171,1.704 c-4.547-0.153-10.849,1.44-13.066,8.089l-18.631,24.178c-0.062,0.219-0.158,0.429-0.325,0.604l-11.05,23.95 c2.621,2.686,4.733,4.752,5.414,5.166c6.06,3.688,13.963,1.765,17.651-4.296l21.721-39.305c0.358-0.006,0.714-0.013,1.064-0.031 v0.001l0.032-0.003c1.528-0.079,11.73-0.93,11.73-0.93c0.535-0.043,1.061-0.12,1.585-0.233c1.952-0.424,7.029-1.549,9.68-2.348 c0.602-0.181,1.032-0.511,1.313-0.9c1.161-0.124,2.142-0.23,2.794-0.305c1.505-0.172,1.882-1.258,1.367-2.292 c0.693-0.066,1.303-0.135,1.792-0.208C229.922,110.203,229.622,107.275,226.833,106.237z" style="fill: inherit;"></path><path d="M106.694,379.363c0.135,1.833,0.255,3.329,0.358,4.563c1.009,0.44,1.69,1.893,4.325,1.893 c3.436,0,4.828-2.96,7.696-1.11c0.853-1.868,3.475-2.966,6.108-2.92c-0.143-0.908-0.258-1.705-0.354-2.425H106.694z" style="fill: inherit;"></path><path d="M105.089,85.156c0.399-0.339,0.784-0.694,1.144-1.074c0.45-0.476,0.855-0.993,1.237-1.529 C106.783,83.517,105.987,84.393,105.089,85.156z" style="fill: inherit;"></path></g><g id="__id30_scs8q00o79"><path clip-rule="evenodd" d="M161.933,132.369l-11.442,24.8 c-0.554,0.579-1.472,0.597-2.048,0.04l-11.945-11.561c-0.475-0.46-0.557-1.157-0.269-1.707l-9.048-8.829l-5.507,63.283 c-0.406,2.781-0.908,5.352-3.718,5.455c-23.128,0.852-45.797-1.987-68.007-8.515c-2.698-0.794-4.436-3.408-4.142-6.205 c0.029-0.277,0.046-0.567,0.073-0.846c3.7-1.46,6.728-4.523,7.978-8.625l2.448-22.952c0.944-0.406,1.908-0.82,1.91-0.821 c0.167-0.058,0.333-0.132,0.49-0.223l5.066-3.777c3.279-2.514,1.17-4.812-0.371-4.423c0.899-0.512,1.642-0.948,1.917-1.143 c0.907-0.642,2.332-1.613,1.81-3.29c-0.274-0.88-0.989-1.256-1.771-1.368c1.43-1.002,1.482-2.547,1.191-3.14 c-0.527-1.08-1.16-1.181-2.439-1.024c-1.147,0.14-6.849,0.804-8.031,0.943c-0.136,0.016-0.227,0.027-0.229,0.027 c-0.216,0.015-0.431,0.044-0.644,0.103l-0.75,0.228c-0.369-0.258-0.767-0.476-1.181-0.662l1.454-1.021 c0.2-0.014,0.419-0.029,0.645-0.045c0.063-0.004,0.129-0.009,0.193-0.014c0.189-0.014,0.385-0.028,0.587-0.042 c0.052-0.004,0.104-0.008,0.157-0.011c0.233-0.017,0.473-0.035,0.715-0.052c0.094-0.007,0.189-0.014,0.284-0.021 c0.185-0.014,0.371-0.028,0.558-0.042c0.107-0.008,0.214-0.017,0.321-0.025c0.151-0.012,0.3-0.023,0.449-0.035 c0.119-0.01,0.239-0.019,0.356-0.029c0.83-0.067,1.611-0.136,2.224-0.199c2.558-0.262,3.343-1.971,3.358-2.748 c0.021-1.202-0.904-1.312-2.119-1.672l-2.298-0.303l0,0l-5.701-0.751c-0.782-0.085-1.546,0.043-2.191,0.346 c-0.02,0.009-0.037,0.02-0.056,0.029c-0.146,0.072-0.285,0.154-0.416,0.244l-7.804,4.277c-0.248,0.175-0.469,0.379-0.661,0.604v0 c-0.568,0.668-0.873,1.53-0.838,2.431c0,0.001,0,0.001,0,0.002l-2.277,11.557l-11.896,20.639l1.132-16.655 c0.033-0.64,0.482-1.166,1.076-1.323l2.017-39.165c0.434-4.439,2.816-8.212,6.21-10.575c0.293-0.341,0.66-0.624,1.099-0.807 c4.432-1.844,10.973-5.23,20.22-7.943c0,0,5.211-1.023,13.571-1.863l-0.299,2.582c-0.765,6.952,3.998,13.32,11.394,14.118 c7.395,0.798,14.01-4.191,14.775-11.142l0.205-6.581c3.247,0.077,6.596,0.238,10.011,0.506c7.19,0.842,12.169,1.924,16.487,3.494 c2.326,0.626,4.531,1.831,6.38,3.629l24.356,26.442c0.547-0.236,1.203-0.118,1.63,0.336l3.361,4.076 C162.467,130.943,162.463,131.815,161.933,132.369z M345.437,390.29v-3.836c0-0.922-0.135-1.811-0.369-2.659l-19.116-0.507 c-0.279,0.835-0.458,1.718-0.507,2.638l-0.084,1.606c-0.733,8.5-0.586,14.655-0.586,20.81h35.024 C359.944,401.454,345.437,397.005,345.437,390.29z M78.657,384.267c-0.277-0.188-0.499-0.259-0.714-0.22 c-1.221,0.219-2.459,0.208-3.545-0.39c-4.287-2.359-14.349-3.193-16.502,1.814c-1.774,4.124-3.713,6.994-6.376,11.168 c-2.429,3.804-3.247,6.912-3.234,9.451c0.007,1.253,1.049,2.252,2.301,2.252h30.709c1.251,0,2.298-1,2.301-2.251 c0.014-6.957-2.703-13.525-3.699-17.873C79.472,386.361,79.384,384.765,78.657,384.267z M145.349,396.224 c-7.266-3.237-12.096-6.556-14.246-11.104c-2.263-4.787-10.394-3.992-12.03-0.412c-2.869-1.85-4.26,1.11-7.696,1.11 c-3.435,0-3.548-2.476-5.397-1.947c-2.822,0.806-2.91,12.453-2.907,22.352c0,1.302,1.055,2.353,2.357,2.353h44.012 c1.407,0,2.508-1.222,2.344-2.62C151.441,403.007,150.118,398.349,145.349,396.224z M257.64,380.554 c-0.97,1.255-1.775,2.745-2.328,4.486c0,0-0.886,2.348-2.534,5.25c-2.256,4.581-10.99,8.143-15.757,10.446 c-5.887,2.844-4.864,7.606-4.864,7.606h42.715c1.591-8.82-0.275-12.204,0.833-22.276c0.386-1.573,0.443-2.972,0.253-4.204 L257.64,380.554z M370.255,203.257c0.019,0.009,0.036,0.019,0.055,0.028c0.285-0.214,0.272-0.201,0.527-0.394 c-0.004-0.002-0.009-0.006-0.013-0.008C370.632,203.008,370.445,203.132,370.255,203.257z M405.953,163.515 c-0.495-0.53-1.037-0.991-1.614-1.383l-0.749-0.502l-36.46-25.634c-0.84-1.053-2.049-1.916-3.395-2.426 c-5.356-2.03-10.174-3.638-15.112-4.69l-1.772-10.879c0.289,4.342-5.099,8.529-9.465,9.523c-1.343-0.041-2.722-0.042-4.148-0.002 c-3.324-0.699-4.664-3.017-5.203-6.356c-0.025-0.004-0.05-0.012-0.076-0.016l0.532,6.647c-4.575,0.395-9.651,1.178-15.491,2.408 c-0.331,0.07-0.646,0.158-0.95,0.257c-4.706,1.229-8.239,5.437-8.379,10.544c-0.107,3.893,0.036,39.116,0.191,46.751 c0,0-2.783,27.344-4.103,40.971c3.697-12.506,8.772-27.141,16.954-37.385c-0.594-1.131-2.31-4.692-3.651-10.336 c3.959,11.755,10.298,20.83,20.609,20.83c17.793,0,24.952-20.471,29.98-41.565l19.322,12.392l-13.904,17.165 c2.398,0.956,5.061,2.801,6.355,4.353c1.516,1.819,3.972,4.946,3.353,7.55l26.716-24.733 C409.345,173.404,409.55,167.366,405.953,163.515z" fill-rule="evenodd" style="fill: rgb(0, 74, 173);"></path></g><g id="__id31_scs8q00o79"><path clip-rule="evenodd" d="M368.955,85.573c-3.38,5.606-10.428,7.639-16.217,4.884 c0.452,3.02,0.172,6.147-0.87,9.104c-0.484-1.941-1.758-3.425-3.477-3.751c-2.603-0.493-3.248,1.96-3.568,3.652l-0.471,2.482 c-1.235-1.343-1.992-3.084-2.425-4.748c-0.006-0.023-0.012-0.046-0.018-0.068c-0.205-0.803-0.332-1.585-0.402-2.297 c-0.006-0.065-0.01-0.127-0.016-0.191c-0.023-0.269-0.036-0.526-0.043-0.769c-0.002-0.077-0.005-0.156-0.005-0.229 c-0.002-0.283,0.003-0.551,0.021-0.783c-0.408-0.001-0.836-0.005-1.275-0.012c-0.037,0-0.074-0.001-0.111-0.001 c-0.425-0.007-0.865-0.018-1.314-0.032c-0.056-0.002-0.111-0.003-0.167-0.005c-0.443-0.015-0.898-0.036-1.359-0.062 c-0.065-0.004-0.131-0.007-0.196-0.011c-0.462-0.027-0.931-0.061-1.405-0.101c-0.065-0.005-0.13-0.011-0.195-0.017 c-0.48-0.042-0.965-0.092-1.452-0.15c-0.058-0.007-0.116-0.015-0.174-0.022c-0.498-0.062-0.999-0.132-1.499-0.213 c-0.041-0.007-0.082-0.014-0.123-0.021c-0.519-0.086-1.037-0.182-1.552-0.292c-0.012-0.003-0.024-0.006-0.036-0.008 c-1.062-0.229-2.109-0.513-3.118-0.864c-0.023-0.008-0.047-0.015-0.07-0.024c-0.482-0.169-0.954-0.356-1.415-0.558 c-0.041-0.018-0.082-0.035-0.122-0.053c-0.45-0.2-0.887-0.419-1.311-0.654c-0.046-0.025-0.092-0.05-0.137-0.076 c-0.418-0.236-0.821-0.491-1.209-0.764c-0.043-0.031-0.086-0.062-0.129-0.093c-0.386-0.278-0.756-0.575-1.106-0.894 c-0.034-0.031-0.066-0.062-0.099-0.093c-0.353-0.328-0.688-0.677-0.998-1.049c-0.019-0.022-0.036-0.047-0.054-0.069 c-0.649-0.793-1.197-1.686-1.615-2.697v0c-0.235-0.568-0.431-1.171-0.581-1.815c5.942-8.273,17.31-10.306,25.747-4.772l2.954-4.898 c3.6-5.969,11.356-7.89,17.325-4.291C370.634,71.848,372.555,79.604,368.955,85.573z M52.252,146.219 c0.038,0,0.077-0.004,0.115-0.014l4.766-1.139l6.486-2.562c0.257-0.102,0.383-0.392,0.281-0.648s-0.393-0.386-0.648-0.281 l-6.418,2.54l-4.697,1.117c-0.27,0.063-0.436,0.333-0.371,0.602C51.82,146.065,52.025,146.219,52.252,146.219z M30.516,152.652 l8.475,0.086l-0.573,0.994l-7.911-0.08c-0.276-0.003-0.498-0.229-0.495-0.505c0.003-0.274,0.227-0.495,0.5-0.495 C30.513,152.652,30.514,152.652,30.516,152.652z M51.391,151.187l4.698-1.118l6.419-2.54c0.257-0.104,0.548,0.024,0.648,0.281 c0.102,0.257-0.024,0.547-0.281,0.648l-6.486,2.562l-4.766,1.14c-0.039,0.01-0.078,0.014-0.116,0.014 c-0.227,0-0.432-0.154-0.486-0.384C50.956,151.52,51.122,151.25,51.391,151.187z M355.496,155.044 c0.149-0.234,0.461-0.3,0.69-0.151l7.561,4.849c0.232,0.149,0.301,0.458,0.151,0.69c-0.096,0.149-0.257,0.23-0.421,0.23 c-0.093,0-0.187-0.025-0.27-0.079l-7.561-4.849C355.415,155.585,355.347,155.277,355.496,155.044z M42.416,119.549l1.5,16.532 c-0.373,0.278-0.679,0.62-0.913,1.006l-1.583-17.448c-0.024-0.274,0.178-0.518,0.453-0.543 C42.117,119.073,42.391,119.274,42.416,119.549z M50.51,116.022c-0.124-0.882,0.492-1.605,1.376-1.616l41.489-0.496 c0.884-0.01,1.699,0.697,1.822,1.579l7.625,54.533c0.124,0.882-0.492,1.606-1.376,1.616l-41.489,0.496 c-0.883,0.01-1.699-0.696-1.823-1.578l-1.875-13.413l0.047-0.437c0.944-0.406,1.908-0.82,1.91-0.821 c0.167-0.058,0.333-0.132,0.49-0.223l5.066-3.777c3.279-2.514,1.17-4.812-0.371-4.423c0.899-0.512,1.642-0.948,1.917-1.143 c0.907-0.642,2.332-1.613,1.81-3.29c-0.274-0.88-0.989-1.256-1.771-1.368c1.43-1.002,1.482-2.547,1.191-3.14 c-0.527-1.08-1.16-1.181-2.439-1.024c-1.279,0.156-8.24,0.966-8.26,0.97c-0.216,0.015-0.431,0.044-0.644,0.103l-0.75,0.228 c-0.262-0.183-0.542-0.34-0.829-0.486l-0.054-0.385l1.156-0.812c1.803-0.125,4.783-0.341,6.489-0.516 c2.558-0.262,3.343-1.971,3.358-2.748c0.021-1.202-0.904-1.312-2.119-1.672l-8-1.054c-0.633-0.069-1.251,0.008-1.807,0.198 L50.51,116.022z M77.039,59.928c2.584,0.151,2.188,9.941,2.188,9.941c-0.066,1.141-1.024,1.948-2.088,1.943 c2.418,5.614,5.734,9.978,8.716,12.69c0.791,0.772,1.671,1.455,2.626,2.029c0.313,0.189,0.635,0.365,0.963,0.531 c0.988,0.495,2.041,0.879,3.147,1.135c0.369,0.085,0.743,0.157,1.122,0.213c0.38,0.056,0.765,0.099,1.155,0.124 c0.492,0.033,0.98,0.042,1.464,0.025c1.449-0.049,2.85-0.317,4.167-0.772c2.195-0.759,4.16-2.041,5.733-3.706 c0.629-0.665,1.196-1.393,1.69-2.172c1.235-1.949,2.015-4.225,2.181-6.688l0.611-9.068c-1.489,5.093-4.122,6.476-10.891,6.476 c-9.808,0-15.753-1.888-17.571-11.83c3.901-2.856,0.386-8.356,3.85-13.042c3.33,1.109,9.529,1.128,13.237,0.749 c4.764-0.487,7.173-0.955,9.089-2.199c1.012,1.514,1.811,3.206,2.319,5.06c0.359,1.307,0.542,2.653,0.59,3.974 c0.006-0.074,0.018-0.152,0.023-0.225c0.812-11.24-8.432-18.676-18.835-18.676c-10.402,0-18.835,7.562-18.835,18.676 c0,2.045,0.161,4.011,0.429,5.907C74.954,60.282,75.967,59.866,77.039,59.928z M99.163,75.752c3.03,0,6.787-1.235,6.787,1.594 c0,1.234-0.567,2.366-1.513,3.25c-1.517,1.418-4.119,0.337-4.138-1.739v-0.038c0-0.01,0.002-0.018,0.002-0.029 c0,0-2.272,0.018-2.272,0.029c0,0.013,0,0.025-0.001,0.038c-0.018,2.076-2.621,3.157-4.137,1.739 c-0.946-0.884-1.514-2.016-1.514-3.25C92.377,74.517,96.134,75.752,99.163,75.752z M207.87,102.772l-0.787,0.003 c-0.308,0.001-0.606,0.002-0.896,0.002c-2.81,0-4.949-0.112-8.786-1.392c-0.262-0.088-0.403-0.371-0.316-0.633 c0.089-0.262,0.373-0.402,0.633-0.316c4.078,1.36,6.059,1.352,9.362,1.339l0.789-0.003h0.001c0.275,0,0.5,0.224,0.5,0.499 C208.369,102.547,208.146,102.772,207.87,102.772z M195.232,117.981c0,0.276-0.224,0.5-0.5,0.5h-6.285c-0.276,0-0.5-0.224-0.5-0.5 s0.224-0.5,0.5-0.5h6.285C195.009,117.481,195.232,117.705,195.232,117.981z M223.893,105.656 c-0.024,0.259-0.242,0.453-0.497,0.453c-0.016,0-0.032-0.001-0.048-0.002c-4.488-0.422-12.702-0.884-14.858-1.002 c0.045,0.686,0.087,1.534,0.105,2.436l12.901,0.803c0.275,0.018,0.485,0.255,0.468,0.53c-0.017,0.265-0.236,0.469-0.498,0.469 c-0.011,0-0.021,0-0.032-0.001l-12.829-0.799c-0.003,0.678-0.026,1.356-0.076,1.997c1.908,0.208,6.575-0.087,9.795-0.623 c0.267-0.049,0.53,0.14,0.575,0.411c0.045,0.272-0.139,0.53-0.411,0.575c-2.595,0.432-6.009,0.703-8.353,0.703 c-0.678,0-1.258-0.024-1.711-0.072c-0.063,0.444-0.146,0.851-0.252,1.198c-0.066,0.215-0.265,0.354-0.479,0.354 c-0.049,0-0.098-0.007-0.146-0.021c-0.264-0.081-0.412-0.361-0.332-0.625c0.772-2.517,0.16-8.764,0.154-8.826 c-0.028-0.274,0.173-0.52,0.447-0.547c0.26-0.037,0.52,0.172,0.547,0.447c0.005,0.043,0.026,0.261,0.052,0.585 c1.936,0.105,10.423,0.578,15.026,1.011C223.717,105.137,223.919,105.38,223.893,105.656z M376.424,231.283 c0,9.756-8.489,99.549-12.334,139.724c-0.016-0.002-2.435,13.228-2.452,13.228l-42.046-1.116l9.057-89.943 c0.005,0,0.009,0.003,0.013,0.003c0.006,0,0.011,0,0.016,0c0.27,0,0.491-0.214,0.5-0.484l2.151-69.337 c0.004-0.125-0.039-0.246-0.12-0.341l-7.725-9.012c-0.181-0.209-0.497-0.232-0.705-0.055c-0.21,0.18-0.234,0.496-0.055,0.705 l7.599,8.865l-2.146,69.143c-0.007,0.229,0.143,0.418,0.351,0.484l-24.798,77.881c-0.048-0.015-4.922,12.463-4.976,12.463 l-46.884-3.349c11.031-37.779,41.368-128.477,46.177-145.48c3.828-13.535,9.148-31.4,18.665-43.316 c-0.629-1.199-2.521-5.127-3.889-11.376c-1.496-6.842-2.59-17.841,0.7-31.388c0.065-0.268,0.333-0.426,0.604-0.368 c0.269,0.065,0.433,0.336,0.368,0.604c-3.24,13.34-2.173,24.162-0.706,30.892c1.59,7.295,3.978,11.489,4.001,11.53 c0.062,0.106,0.073,0.225,0.053,0.337c3.199,5.194,7.312,8.877,12.615,9.938c-0.468-2.476-0.934-4.82-1.382-7.06 c-2.634-13.202-4.536-22.741-2.218-36.958c1.74-10.677,6.189-17.981,6.884-19.073l-0.465-10.654 c-0.012-0.275,0.202-0.509,0.479-0.521c0.276-0.006,0.51,0.203,0.521,0.479l0.472,10.813c0.004,0.106-0.025,0.212-0.085,0.301 c-0.05,0.073-4.975,7.506-6.819,18.816c-2.289,14.039-0.4,23.503,2.213,36.602c0.457,2.291,0.935,4.685,1.412,7.223 c0.013,0.069,0.01,0.138-0.004,0.202c0.715,0.095,1.447,0.156,2.204,0.156c11.136,0,18.105-8.022,22.995-19.193 c3.102,1.764,5.875,4.036,8.218,6.695c-1.758,0.368-2.707,1.286-2.707,1.286c-1.629,1.181-4.42,3.406-4.995,3.807 c-2.78,1.94-0.457,4.63,1.957,3.31c1.73-0.945,2.802-1.174,5.139-2.327c-0.096-0.195-0.064-0.435,0.106-0.589l1.696-1.532 c0.205-0.186,0.521-0.169,0.706,0.036c0.185,0.205,0.169,0.521-0.036,0.706l-1.696,1.532c-0.096,0.086-0.216,0.129-0.335,0.129 c-0.125,0-0.247-0.052-0.343-0.145c-2.151,2.248-1.611,2.281-3.917,4.566c-2.565,2.542,0.142,5.496,2.425,3.657 c0.063-0.051,0.139-0.112,0.208-0.167c-0.16-0.201-0.149-0.492,0.041-0.672l6.548-6.209c0.2-0.189,0.517-0.181,0.707,0.02 c0.189,0.2,0.181,0.517-0.02,0.707l-6.548,6.209c-0.097,0.091-0.22,0.137-0.344,0.137c-0.078,0-0.154-0.024-0.225-0.06 c-0.735,1.811,1.143,3.477,2.927,2.24c0.579-0.401,1.3-0.887,2.095-1.416c-0.077-0.202-0.024-0.436,0.158-0.574l4.738-3.591 c0.218-0.166,0.533-0.125,0.7,0.097c0.167,0.22,0.124,0.533-0.097,0.7l-4.738,3.591c-0.09,0.068-0.196,0.102-0.302,0.102 c-0.016,0-0.03-0.009-0.046-0.01c-0.648,1.496,0.895,3.039,2.447,2.112c0.453-0.271,1.366-0.693,2.388-1.175 C375.984,214.031,376.424,222.548,376.424,231.283z M156.805,126.702c0.177,0.212,0.147,0.527-0.065,0.704L136.883,143.9 c-0.093,0.077-0.206,0.115-0.319,0.115c-0.144,0-0.286-0.062-0.385-0.181c-0.177-0.212-0.147-0.527,0.065-0.704l19.856-16.494 C156.311,126.462,156.628,126.489,156.805,126.702z M125.553,288.376l1.804,90.987h-23.534c-4.567-15.157-15.172-58.148-9.996-85 l-9.24-66.705l0.135-12.214l8.155-2.175c0.267-0.071,0.426-0.346,0.354-0.612c-0.071-0.266-0.342-0.423-0.612-0.354l-8.522,2.273 c-0.217,0.059-0.368,0.253-0.371,0.478L83.5,235.499c-0.003,0.276,0.219,0.503,0.494,0.506h0l-3.043,143.358H56.503 c-1.754-10.438-5.06-30.467-6.646-42.356c-2.216-16.618,1.065-46.654,1.065-46.654l-3.185-60.052 c-0.534-11.022-0.4-24.017,0.393-35.873c0.536,0.398,1.147,0.709,1.819,0.906c22.21,6.528,44.879,9.367,68.007,8.515 c0.195-0.007,0.376-0.029,0.55-0.059L125.553,288.376z M49.534,163.225c-1.964-0.396-3.843-1.566-4.569-2.847 c-0.137-0.24-0.053-0.546,0.188-0.682c0.239-0.139,0.545-0.054,0.682,0.188c0.502,0.884,2.002,1.979,3.897,2.36 c1.223,0.248,3.021,0.273,4.667-0.996c0.218-0.168,0.532-0.128,0.701,0.092c0.168,0.219,0.127,0.532-0.092,0.701 c-1.335,1.028-2.747,1.338-3.961,1.338C50.493,163.379,49.98,163.315,49.534,163.225z M129.404,117.456l-1.896,17.63 c-0.027,0.256-0.244,0.446-0.496,0.446c-0.019,0-0.036-0.001-0.055-0.003c-0.274-0.029-0.473-0.276-0.443-0.551l1.896-17.63 c0.029-0.275,0.274-0.465,0.551-0.443C129.235,116.934,129.433,117.181,129.404,117.456z" fill-rule="evenodd" style="fill: rgb(0, 0, 0);"></path></g></g></svg>