<svg id="wave" style="transform:rotate(0deg); transition: 0.3s" viewBox="0 0 1440 490" version="1.1" xmlns="http://www.w3.org/2000/svg"><defs><linearGradient id="sw-gradient-0" x1="1" x2="0" y1="1" y2="0"><stop stop-color="rgba(27, 21, 136, 1)" offset="0%"></stop><stop stop-color="rgba(11, 31.836, 255, 1)" offset="100%"></stop></linearGradient></defs><path style="transform:translate(0, 0px); opacity:1" fill="url(#sw-gradient-0)" d="M0,49L120,40.8C240,33,480,16,720,57.2C960,98,1200,196,1440,196C1680,196,1920,98,2160,122.5C2400,147,2640,294,2880,318.5C3120,343,3360,245,3600,204.2C3840,163,4080,180,4320,220.5C4560,261,4800,327,5040,310.3C5280,294,5520,196,5760,155.2C6000,114,6240,131,6480,122.5C6720,114,6960,82,7200,130.7C7440,180,7680,310,7920,375.7C8160,441,8400,441,8640,367.5C8880,294,9120,147,9360,130.7C9600,114,9840,229,10080,253.2C10320,278,10560,212,10800,220.5C11040,229,11280,310,11520,310.3C11760,310,12000,229,12240,212.3C12480,196,12720,245,12960,261.3C13200,278,13440,261,13680,228.7C13920,196,14160,147,14400,122.5C14640,98,14880,98,15120,138.8C15360,180,15600,261,15840,294C16080,327,16320,310,16560,253.2C16800,196,17040,98,17160,49L17280,0L17280,490L17160,490C17040,490,16800,490,16560,490C16320,490,16080,490,15840,490C15600,490,15360,490,15120,490C14880,490,14640,490,14400,490C14160,490,13920,490,13680,490C13440,490,13200,490,12960,490C12720,490,12480,490,12240,490C12000,490,11760,490,11520,490C11280,490,11040,490,10800,490C10560,490,10320,490,10080,490C9840,490,9600,490,9360,490C9120,490,8880,490,8640,490C8400,490,8160,490,7920,490C7680,490,7440,490,7200,490C6960,490,6720,490,6480,490C6240,490,6000,490,5760,490C5520,490,5280,490,5040,490C4800,490,4560,490,4320,490C4080,490,3840,490,3600,490C3360,490,3120,490,2880,490C2640,490,2400,490,2160,490C1920,490,1680,490,1440,490C1200,490,960,490,720,490C480,490,240,490,120,490L0,490Z"></path></svg>